<svg width="16" height="16" viewBox="0 0 16 16" fill="none" xmlns="http://www.w3.org/2000/svg">
<path d="M7.04167 11.375H8.125V6.58333H7.04167V11.375ZM7.57896 5.32375C7.74479 5.32375 7.88528 5.26764 8.00042 5.15542C8.11556 5.0432 8.17313 4.90417 8.17313 4.73833C8.17313 4.5725 8.11701 4.43201 8.00479 4.31688C7.89257 4.20188 7.75354 4.14437 7.58771 4.14437C7.42188 4.14437 7.28139 4.20042 7.16625 4.3125C7.05111 4.42472 6.99354 4.56375 6.99354 4.72958C6.99354 4.89542 7.04965 5.0359 7.16187 5.15104C7.2741 5.26618 7.41313 5.32375 7.57896 5.32375ZM7.59042 15.1667C6.54722 15.1667 5.56472 14.9693 4.64292 14.5746C3.72111 14.1799 2.91431 13.6367 2.2225 12.9452C1.53069 12.2537 0.987292 11.4475 0.592292 10.5267C0.19743 9.60597 0 8.62215 0 7.57521C0 6.52826 0.197361 5.54736 0.592083 4.6325C0.986806 3.71764 1.52993 2.91431 2.22146 2.2225C2.91299 1.53069 3.71917 0.987292 4.64 0.592292C5.56069 0.19743 6.54451 0 7.59146 0C8.6384 0 9.61931 0.197361 10.5342 0.592083C11.449 0.986805 12.2524 1.52993 12.9442 2.22146C13.636 2.91299 14.1794 3.7175 14.5744 4.635C14.9692 5.55264 15.1667 6.53306 15.1667 7.57625C15.1667 8.61944 14.9693 9.60194 14.5746 10.5238C14.1799 11.4456 13.6367 12.2524 12.9452 12.9442C12.2537 13.636 11.4492 14.1794 10.5317 14.5744C9.61403 14.9692 8.63361 15.1667 7.59042 15.1667ZM7.58333 14.0833C9.38889 14.0833 10.9236 13.4514 12.1875 12.1875C13.4514 10.9236 14.0833 9.38889 14.0833 7.58333C14.0833 5.77778 13.4514 4.24306 12.1875 2.97917C10.9236 1.71528 9.38889 1.08333 7.58333 1.08333C5.77778 1.08333 4.24306 1.71528 2.97917 2.97917C1.71528 4.24306 1.08333 5.77778 1.08333 7.58333C1.08333 9.38889 1.71528 10.9236 2.97917 12.1875C4.24306 13.4514 5.77778 14.0833 7.58333 14.0833Z" fill="#012F46"/>
</svg>
