<svg width="171" height="16" viewBox="0 0 171 16" fill="none" xmlns="http://www.w3.org/2000/svg">
<g opacity="0.99">
<path opacity="0.99" d="M36.9125 0.56394V15.1423H34.1438L26.8807 6.28911V15.1423H23.5547V0.56394H26.3533L33.5925 9.41415V0.56394H36.9125Z" fill="black"/>
<path opacity="0.99" d="M51.646 12.4332V15.1324H40.3677V0.563036H50.8759V3.26218H43.7326V6.42921H50.0938V9.05337H43.7326V12.4273L51.646 12.4332Z" fill="black"/>
<path opacity="0.99" d="M57.3479 3.31017H52.6854V0.563036H65.3812V3.31017H60.7185V15.1414H57.3479V3.31017Z" fill="black"/>
<path opacity="0.99" d="M79.8415 8.88237C80.3255 9.54157 80.5745 10.3441 80.5487 11.1617C80.5734 11.7406 80.4489 12.3162 80.1865 12.8327C79.924 13.3491 79.5325 13.789 79.0508 14.1097C78.0519 14.7955 76.6067 15.1394 74.715 15.1414H67.191V0.563036H74.2955C76.0689 0.563036 77.4317 0.902925 78.3823 1.58271C78.8343 1.88685 79.2016 2.30038 79.4512 2.78486C79.7008 3.26934 79.8236 3.80904 79.8085 4.35383C79.8247 5.01504 79.6531 5.66721 79.3132 6.23471C78.9739 6.80215 78.481 7.26164 77.891 7.55983C78.6633 7.78568 79.3458 8.24819 79.8415 8.88237ZM70.5531 3.10323V6.54014H73.903C74.563 6.58237 75.2215 6.43016 75.7963 6.1023C76.0066 5.96103 76.176 5.76765 76.2893 5.54108C76.402 5.31452 76.4542 5.06252 76.4407 4.80969C76.4547 4.55851 76.402 4.30809 76.2893 4.08341C76.176 3.85872 76.0061 3.6676 75.7963 3.52909C75.2192 3.20862 74.5619 3.06081 73.903 3.10323H70.5531ZM76.4917 12.1634C76.7144 12.018 76.895 11.8158 77.0139 11.5775C77.1328 11.3392 77.1866 11.0736 77.1687 10.8078C77.1687 9.6082 76.2696 9.00839 74.4722 9.00839H70.5408V12.6072H74.4722C75.3589 12.6012 76.0302 12.4543 76.4794 12.1634H76.4917Z" fill="black"/>
<path opacity="0.99" d="M92.39 15.1414L89.5764 11.0806H86.4784V15.1414H83.1072V0.562995H89.3997C90.5533 0.536291 91.6997 0.75611 92.7619 1.20779C93.671 1.58586 94.4432 2.23384 94.9732 3.06443C95.5038 3.89503 95.7673 4.86835 95.7281 5.85329C95.7662 6.83631 95.4981 7.80682 94.9614 8.6309C94.4247 9.45492 93.6457 10.0919 92.7316 10.4539L95.9978 15.1414H92.39ZM91.5359 3.96692C91.0087 3.52906 90.2387 3.31013 89.2259 3.31013H86.4784V8.3935H89.2259C90.2387 8.3935 91.0087 8.17158 91.5359 7.72774C91.7866 7.48277 91.9851 7.19025 92.1208 6.86738C92.2566 6.54445 92.3267 6.19764 92.3267 5.84735C92.3267 5.497 92.2566 5.1502 92.1208 4.82729C91.9851 4.50438 91.7866 4.21187 91.5359 3.96692Z" fill="black"/>
<path opacity="0.99" d="M107.995 12.0164H101.233L99.941 15.1414H96.4863L102.979 0.563036H106.308L112.822 15.1414H109.283L107.995 12.0164ZM106.935 9.4552L104.624 3.87399L102.314 9.4552H106.935Z" fill="black"/>
<path opacity="0.99" d="M127.597 15.1414L127.576 6.3932L123.289 13.5909H121.77L117.503 6.57311V15.1414H114.341V0.563036H117.143L122.596 9.62317L127.966 0.563036H130.732L130.774 15.1414H127.597Z" fill="black"/>
<path opacity="0.99" d="M147.571 0.563036V15.1414H144.2V9.1643H137.584V15.1414H134.222V0.563036H137.593V6.30924H144.2V0.563036H147.571Z" fill="black"/>
<path opacity="0.99" d="M160.617 12.0164H153.854L152.566 15.1414H149.111L155.604 0.563036H158.933L165.444 15.1414H161.908L160.617 12.0164ZM159.556 9.4552L157.246 3.87399L154.936 9.4552H159.556Z" fill="black"/>
<path d="M15.7031 0H0V15.7031H15.7031V0Z" fill="#FFDD00"/>
<path d="M166.425 2.80413V0.307332H165.46V0.0560818H167.682V0.307332H166.716V2.80413H166.425Z" fill="black"/>
<path d="M168.146 2.80413V0.0560818H168.385L169.642 2.19956H169.516L170.761 0.0560818H171V2.80413H170.721V0.491844H170.788L169.642 2.45474H169.504L168.35 0.491844H168.425V2.80413H168.146Z" fill="black"/>
</g>
</svg>
