<svg width="216" height="110" viewBox="0 0 216 110" fill="none" xmlns="http://www.w3.org/2000/svg">
<g opacity="0.99">
<path opacity="0.99" d="M37.6102 39.5746V54.4286H34.7893L27.3888 45.408V54.4286H24V39.5746H26.8515L34.2275 48.5921V39.5746H37.6102Z" fill="black"/>
<path opacity="0.99" d="M52.6222 51.6683V54.4185H41.1307V39.5737H51.8376V42.3239H44.5593V45.5507H51.0407V48.2245H44.5593V51.6622L52.6222 51.6683Z" fill="black"/>
<path opacity="0.99" d="M58.432 42.3727H53.6813V39.5737H66.6171V42.3727H61.8663V54.4277H58.432V42.3727Z" fill="black"/>
<path opacity="0.99" d="M81.3508 48.0503C81.844 48.7219 82.0977 49.5397 82.0714 50.3727C82.0965 50.9626 81.9697 51.549 81.7023 52.0753C81.4348 52.6015 81.036 53.0497 80.5451 53.3765C79.5274 54.0752 78.0548 54.4256 76.1274 54.4277H68.4611V39.5737H75.7C77.5068 39.5737 78.8954 39.92 79.864 40.6126C80.3245 40.9225 80.6988 41.3439 80.9531 41.8375C81.2074 42.3311 81.3325 42.8811 81.3171 43.4361C81.3337 44.1098 81.1588 44.7743 80.8125 45.3526C80.4668 45.9307 79.9646 46.3989 79.3634 46.7027C80.1503 46.9329 80.8457 47.4041 81.3508 48.0503ZM71.8868 42.1619V45.6638H75.3C75.9725 45.7068 76.6434 45.5517 77.2291 45.2177C77.4434 45.0737 77.616 44.8767 77.7314 44.6458C77.8463 44.415 77.8994 44.1582 77.8857 43.9006C77.9 43.6447 77.8463 43.3895 77.7314 43.1606C77.616 42.9317 77.4428 42.7369 77.2291 42.5958C76.6411 42.2693 75.9714 42.1187 75.3 42.1619H71.8868ZM77.9377 51.3933C78.1646 51.2451 78.3486 51.0391 78.4697 50.7963C78.5908 50.5536 78.6457 50.2829 78.6274 50.0121C78.6274 48.7898 77.7114 48.1787 75.88 48.1787H71.8743V51.8455H75.88C76.7834 51.8394 77.4674 51.6897 77.9251 51.3933H77.9377Z" fill="black"/>
<path opacity="0.99" d="M94.1366 54.4276L91.2697 50.2901H88.1131V54.4276H84.6783V39.5736H91.0897C92.2651 39.5464 93.4331 39.7704 94.5154 40.2306C95.4417 40.6158 96.2286 41.2761 96.7686 42.1224C97.3091 42.9687 97.5777 43.9604 97.5377 44.9639C97.5766 45.9655 97.3034 46.9544 96.7566 47.7941C96.2097 48.6337 95.416 49.2827 94.4846 49.6515L97.8126 54.4276H94.1366ZM93.2663 43.0419C92.7291 42.5958 91.9446 42.3727 90.9126 42.3727H88.1131V47.5522H90.9126C91.9446 47.5522 92.7291 47.3261 93.2663 46.8738C93.5217 46.6242 93.724 46.3262 93.8623 45.9972C94.0006 45.6682 94.072 45.3148 94.072 44.9579C94.072 44.6009 94.0006 44.2476 93.8623 43.9185C93.724 43.5895 93.5217 43.2915 93.2663 43.0419Z" fill="black"/>
<path opacity="0.99" d="M110.037 51.2435H103.146L101.83 54.4277H98.3102L104.926 39.5737H108.318L114.955 54.4277H111.349L110.037 51.2435ZM108.956 48.6339L106.602 42.9472L104.248 48.6339H108.956Z" fill="black"/>
<path opacity="0.99" d="M130.009 54.4277L129.988 45.5141L125.619 52.8478H124.071L119.724 45.6974V54.4277H116.503V39.5737H119.358L124.914 48.8051L130.385 39.5737H133.203L133.246 54.4277H130.009Z" fill="black"/>
<path opacity="0.99" d="M150.361 39.5737V54.4277H146.926V48.3375H140.185V54.4277H136.759V39.5737H140.194V45.4285H146.926V39.5737H150.361Z" fill="black"/>
<path opacity="0.99" d="M163.653 51.2435H156.762L155.45 54.4277H151.93L158.545 39.5737H161.937L168.571 54.4277H164.969L163.653 51.2435ZM162.573 48.6339L160.218 42.9472L157.865 48.6339H162.573Z" fill="black"/>
<path d="M16 39H0V55H16V39Z" fill="#FFDD00"/>
<path d="M169.571 41.8571V39.3131H168.587V39.0571H170.851V39.3131H169.867V41.8571H169.571Z" fill="black"/>
<path d="M171.325 41.8571V39.0571H171.569L172.849 41.2411H172.721L173.989 39.0571H174.233V41.8571H173.949V39.5011H174.017L172.849 41.5011H172.709L171.533 39.5011H171.609V41.8571H171.325Z" fill="black"/>
</g>
<line x1="214.733" y1="2.18557e-08" x2="214.733" y2="94" stroke="#F2F2F2"/>
</svg>
