<svg width="27" height="68" viewBox="0 0 27 68" fill="none" xmlns="http://www.w3.org/2000/svg">
<g clip-path="url(#clip0_1_3352)">
<path d="M19.1692 38.5472C18.7485 39.0647 18.2753 39.5372 17.7572 39.9572L20.9835 43.1835L22.3955 41.7715L19.1692 38.5472ZM17.0949 27.0521C15.8439 25.798 14.1967 25.0165 12.4341 24.8408C10.6715 24.6651 8.90249 25.1061 7.42855 26.0886C5.95462 27.071 4.86699 28.5342 4.35099 30.2287C3.835 31.9233 3.92258 33.7443 4.59882 35.3815C5.27505 37.0187 6.49809 38.3708 8.0595 39.2072C9.62092 40.0437 11.4241 40.3129 13.1617 39.9688C14.8993 39.6248 16.4639 38.6888 17.5888 37.3205C18.7136 35.9521 19.3292 34.236 19.3305 32.4647C19.3341 31.4595 19.1383 30.4636 18.7546 29.5346C18.3709 28.6055 17.8068 27.7618 17.0949 27.0521ZM15.6772 36.4672C14.7514 37.3936 13.5329 37.9704 12.2295 38.0992C10.926 38.228 9.61826 37.9008 8.529 37.1734C7.43975 36.446 6.63641 35.3635 6.25587 34.1102C5.87534 32.8569 5.94115 31.5104 6.4421 30.3002C6.94306 29.09 7.84815 28.091 9.00315 27.4733C10.1582 26.8556 11.4916 26.6576 12.7763 26.9128C14.0609 27.1681 15.2173 27.861 16.0484 28.8733C16.8795 29.8857 17.3338 31.1549 17.334 32.4647C17.3363 33.2082 17.191 33.9449 16.9066 34.6319C16.6223 35.319 16.2044 35.9427 15.6772 36.4672Z" fill="black"/>
</g>
<defs>
<clipPath id="clip0_1_3352">
<rect width="18.4088" height="26" fill="white" transform="translate(4 21)"/>
</clipPath>
</defs>
</svg>
