<svg width="19" height="26" viewBox="0 0 19 26" fill="none" xmlns="http://www.w3.org/2000/svg">
<g clip-path="url(#clip0_1_2029)">
<path d="M15.1698 17.5472C14.749 18.0647 14.2759 18.5372 13.7578 18.9573L16.9841 22.1835L18.396 20.7716L15.1698 17.5472ZM13.0954 6.05214C11.8445 4.79805 10.1973 4.01657 8.43467 3.84087C6.67205 3.66517 4.90304 4.10612 3.42911 5.08859C1.95518 6.07105 0.867538 7.53423 0.351545 9.22877C-0.164448 10.9233 -0.0768644 12.7443 0.59937 14.3815C1.2756 16.0187 2.49864 17.3708 4.06006 18.2073C5.62147 19.0437 7.42463 19.3129 9.16226 18.9689C10.8999 18.6248 12.4644 17.6889 13.5893 16.3205C14.7142 14.9521 15.3297 13.2361 15.3311 11.4647C15.3346 10.4595 15.1389 9.46363 14.7552 8.53459C14.3714 7.60555 13.8073 6.7618 13.0954 6.05214ZM11.6778 15.4672C10.7519 16.3936 9.53347 16.9704 8.23002 17.0992C6.92658 17.228 5.61881 16.9008 4.52955 16.1734C3.4403 15.4461 2.63696 14.3635 2.25642 13.1102C1.87589 11.8569 1.9417 10.5104 2.44266 9.30024C2.94361 8.09004 3.8487 7.09098 5.0037 6.47331C6.1587 5.85564 7.49215 5.65757 8.77682 5.91287C10.0615 6.16816 11.2179 6.86101 12.049 7.87335C12.8801 8.8857 13.3344 10.1549 13.3346 11.4647C13.3369 12.2083 13.1916 12.9449 12.9072 13.6319C12.6228 14.319 12.2049 14.9428 11.6778 15.4672Z" fill="#004364"/>
</g>
<defs>
<clipPath id="clip0_1_2029">
<rect width="18.4088" height="26" fill="white"/>
</clipPath>
</defs>
</svg>
